<svg width="170" height="170" viewBox="0 0 170 170" fill="none" xmlns="http://www.w3.org/2000/svg">
<path d="M76.3397 15C80.1887 8.33335 89.8112 8.33333 93.6603 15L149.952 112.5C153.801 119.167 148.99 127.5 141.292 127.5H28.7084C21.0104 127.5 16.1991 119.167 20.0481 112.5L76.3397 15Z" fill="#D9D9D9"/>
<path d="M90.7159 61.4545L89.6705 93.75H80.3295L79.2841 61.4545H90.7159ZM84.9886 108.659C83.3674 108.659 81.9735 108.083 80.8068 106.932C79.6553 105.78 79.0795 104.386 79.0795 102.75C79.0795 101.144 79.6553 99.7727 80.8068 98.6364C81.9735 97.4848 83.3674 96.9091 84.9886 96.9091C86.5492 96.9091 87.9205 97.4848 89.1023 98.6364C90.2992 99.7727 90.8977 101.144 90.8977 102.75C90.8977 103.841 90.6174 104.833 90.0568 105.727C89.5114 106.621 88.7917 107.333 87.8977 107.864C87.0189 108.394 86.0492 108.659 84.9886 108.659Z" fill="white"/>
</svg>
