<svg width="247" height="55" viewBox="0 0 247 55" fill="none" xmlns="http://www.w3.org/2000/svg">
<path d="M8.25625 31.5938C9.60625 37.8844 10.7312 43.6875 14.65 48H7.1875C5.43437 48 4 46.575 4 44.8125V9.1875C4 7.43437 5.425 6 7.1875 6H12.5969C11.3031 7.18125 10.15 8.55 9.1375 10.0875C4.88125 16.65 6.60625 23.85 8.25625 31.5938ZM48.8125 6H40.3562C42.3625 8.00625 44.0312 10.6406 45.2969 13.8844L32.4437 16.6312C31.0469 13.9125 28.9 11.6344 24.7 12.5156C22.3938 13.0125 20.8563 14.325 20.1719 15.7594C19.3469 17.5125 18.9344 19.4906 20.9406 28.9125C22.9187 38.3062 24.1 39.9469 25.5812 41.2125C26.7906 42.2531 28.7125 42.8062 31.0469 42.3094C35.2188 41.4281 36.2687 38.4938 36.4281 35.4469L49.3094 32.6719C49.6094 39.375 47.5562 44.4094 43.9281 48.0094H48.8125C50.5656 48.0094 52 46.5844 52 44.8219V9.1875C52 7.425 50.575 6 48.8125 6Z" fill="#793AFF"/>
<path d="M71.38 32.56C71.38 33.9 71.78 34.94 72.58 35.68C73.4 36.42 74.39 36.79 75.55 36.79C76.81 36.79 77.87 36.6 78.73 36.22C78.97 36.1 79.23 35.98 79.51 35.86C79.79 35.72 80.05 35.63 80.29 35.59C80.53 35.55 80.71 35.53 80.83 35.53C81.69 35.53 82.37 35.93 82.87 36.73C83.11 37.15 83.23 37.57 83.23 37.99C83.23 38.39 83.13 38.78 82.93 39.16C82.73 39.52 82.45 39.85 82.09 40.15C81.31 40.79 80.33 41.27 79.15 41.59C77.97 41.93 76.77 42.1 75.55 42.1C73.71 42.1 72.01 41.77 70.45 41.11C68.89 40.47 67.62 39.46 66.64 38.08C65.68 36.68 65.2 34.93 65.2 32.83V24.1C65.2 22 65.68 20.26 66.64 18.88C67.62 17.48 68.89 16.46 70.45 15.82C72.01 15.16 73.71 14.83 75.55 14.83C76.83 14.83 77.98 14.97 79 15.25C80.02 15.51 80.84 15.86 81.46 16.3C81.9 16.6 82.24 16.97 82.48 17.41C82.74 17.83 82.87 18.27 82.87 18.73C82.87 19.15 82.77 19.53 82.57 19.87C82.33 20.31 82 20.64 81.58 20.86C81.18 21.08 80.75 21.19 80.29 21.19C79.91 21.19 79.53 21.11 79.15 20.95C78.79 20.79 78.47 20.65 78.19 20.53C77.81 20.39 77.42 20.29 77.02 20.23C76.64 20.17 76.15 20.14 75.55 20.14C74.39 20.14 73.4 20.51 72.58 21.25C71.78 21.99 71.38 23.03 71.38 24.37V32.56ZM85.1805 29.74C85.1805 27.72 85.6005 26.09 86.4405 24.85C87.2805 23.61 88.3505 22.73 89.6505 22.21C90.9705 21.69 92.3805 21.43 93.8805 21.43C95.3605 21.43 96.7505 21.69 98.0505 22.21C99.3705 22.73 100.45 23.61 101.29 24.85C102.15 26.09 102.58 27.72 102.58 29.74V33.79C102.58 35.81 102.15 37.44 101.29 38.68C100.45 39.92 99.3705 40.8 98.0505 41.32C96.7505 41.84 95.3605 42.1 93.8805 42.1C92.4005 42.1 91.0005 41.84 89.6805 41.32C88.3805 40.8 87.3005 39.92 86.4405 38.68C85.6005 37.44 85.1805 35.81 85.1805 33.79V29.74ZM96.5505 29.47C96.5505 28.49 96.2805 27.75 95.7405 27.25C95.2205 26.75 94.6005 26.5 93.8805 26.5C93.1605 26.5 92.5305 26.75 91.9905 27.25C91.4705 27.75 91.2105 28.49 91.2105 29.47V34.06C91.2105 35.04 91.4705 35.78 91.9905 36.28C92.5305 36.78 93.1605 37.03 93.8805 37.03C94.6005 37.03 95.2205 36.78 95.7405 36.28C96.2805 35.78 96.5505 35.04 96.5505 34.06V29.47ZM105.435 24.64C105.435 23.66 105.725 22.92 106.305 22.42C106.885 21.9 107.625 21.64 108.525 21.64C109.425 21.64 110.165 21.9 110.745 22.42C111.325 22.92 111.615 23.66 111.615 24.64V41.62H105.435V24.64ZM105.405 17.59C105.405 16.65 105.695 15.96 106.275 15.52C106.855 15.06 107.605 14.83 108.525 14.83C109.445 14.83 110.195 15.06 110.775 15.52C111.355 15.96 111.645 16.65 111.645 17.59C111.645 18.53 111.355 19.23 110.775 19.69C110.195 20.13 109.445 20.35 108.525 20.35C107.605 20.35 106.855 20.13 106.275 19.69C105.695 19.23 105.405 18.53 105.405 17.59ZM114.927 24.43C114.927 23.49 115.217 22.76 115.797 22.24C116.397 21.7 117.117 21.43 117.957 21.43C118.557 21.43 119.107 21.58 119.607 21.88C120.127 22.16 120.507 22.56 120.747 23.08C121.327 22.54 121.997 22.13 122.757 21.85C123.537 21.57 124.327 21.43 125.127 21.43C129.687 21.43 131.967 24.17 131.967 29.65V41.62H125.787V29.29C125.787 28.37 125.537 27.69 125.037 27.25C124.557 26.79 124.017 26.56 123.417 26.56C122.797 26.56 122.237 26.79 121.737 27.25C121.257 27.69 121.017 28.37 121.017 29.29V41.62H114.927V24.43ZM135.113 17.89C135.113 17.25 135.293 16.7 135.653 16.24C136.013 15.78 136.453 15.44 136.973 15.22C137.513 14.98 138.043 14.86 138.563 14.86C139.283 14.86 139.963 15.02 140.603 15.34C141.243 15.64 141.703 16.07 141.983 16.63L149.303 31.63V17.68C149.303 16.8 149.563 16.11 150.083 15.61C150.623 15.09 151.273 14.83 152.033 14.83C152.793 14.83 153.433 15.09 153.953 15.61C154.493 16.11 154.763 16.8 154.763 17.68V39.1C154.763 39.72 154.593 40.25 154.253 40.69C153.913 41.13 153.483 41.46 152.963 41.68C152.443 41.9 151.933 42.01 151.433 42.01C150.693 42.01 149.983 41.85 149.303 41.53C148.623 41.23 148.153 40.8 147.893 40.24L140.573 25.12V41.62H135.113V17.89ZM157.602 29.74C157.602 27.72 158.022 26.09 158.862 24.85C159.702 23.61 160.772 22.73 162.072 22.21C163.392 21.69 164.802 21.43 166.302 21.43C167.782 21.43 169.172 21.69 170.472 22.21C171.792 22.73 172.872 23.61 173.712 24.85C174.572 26.09 175.002 27.72 175.002 29.74V33.79C175.002 35.81 174.572 37.44 173.712 38.68C172.872 39.92 171.792 40.8 170.472 41.32C169.172 41.84 167.782 42.1 166.302 42.1C164.822 42.1 163.422 41.84 162.102 41.32C160.802 40.8 159.722 39.92 158.862 38.68C158.022 37.44 157.602 35.81 157.602 33.79V29.74ZM168.972 29.47C168.972 28.49 168.702 27.75 168.162 27.25C167.642 26.75 167.022 26.5 166.302 26.5C165.582 26.5 164.952 26.75 164.412 27.25C163.892 27.75 163.632 28.49 163.632 29.47V34.06C163.632 35.04 163.892 35.78 164.412 36.28C164.952 36.78 165.582 37.03 166.302 37.03C167.022 37.03 167.642 36.78 168.162 36.28C168.702 35.78 168.972 35.04 168.972 34.06V29.47ZM177.407 29.74C177.407 27.72 177.827 26.09 178.667 24.85C179.507 23.61 180.577 22.73 181.877 22.21C183.197 21.69 184.607 21.43 186.107 21.43C187.587 21.43 188.977 21.69 190.277 22.21C191.597 22.73 192.677 23.61 193.517 24.85C194.377 26.09 194.807 27.72 194.807 29.74V33.79C194.807 35.81 194.377 37.44 193.517 38.68C192.677 39.92 191.597 40.8 190.277 41.32C188.977 41.84 187.587 42.1 186.107 42.1C184.627 42.1 183.227 41.84 181.907 41.32C180.607 40.8 179.527 39.92 178.667 38.68C177.827 37.44 177.407 35.81 177.407 33.79V29.74ZM188.777 29.47C188.777 28.49 188.507 27.75 187.967 27.25C187.447 26.75 186.827 26.5 186.107 26.5C185.387 26.5 184.757 26.75 184.217 27.25C183.697 27.75 183.437 28.49 183.437 29.47V34.06C183.437 35.04 183.697 35.78 184.217 36.28C184.757 36.78 185.387 37.03 186.107 37.03C186.827 37.03 187.447 36.78 187.967 36.28C188.507 35.78 188.777 35.04 188.777 34.06V29.47ZM197.662 24.43C197.662 23.49 197.952 22.76 198.532 22.24C199.132 21.7 199.852 21.43 200.692 21.43C201.292 21.43 201.842 21.58 202.342 21.88C202.862 22.16 203.242 22.56 203.482 23.08C204.062 22.54 204.732 22.13 205.492 21.85C206.272 21.57 207.062 21.43 207.862 21.43C212.422 21.43 214.702 24.17 214.702 29.65V41.62H208.522V29.29C208.522 28.37 208.272 27.69 207.772 27.25C207.292 26.79 206.752 26.56 206.152 26.56C205.532 26.56 204.972 26.79 204.472 27.25C203.992 27.69 203.752 28.37 203.752 29.29V41.62H197.662V24.43ZM228.767 40.36C228.187 40.92 227.497 41.35 226.697 41.65C225.917 41.97 225.087 42.13 224.207 42.13H223.547C222.587 42.13 221.637 41.93 220.697 41.53C219.777 41.15 218.997 40.49 218.357 39.55C217.717 38.59 217.397 37.34 217.397 35.8C217.397 33.56 218.077 31.96 219.437 31C220.797 30.02 222.567 29.53 224.747 29.53H227.837C227.817 28.33 227.557 27.52 227.057 27.1C226.577 26.66 225.917 26.44 225.077 26.44C224.497 26.44 223.827 26.55 223.067 26.77C222.827 26.85 222.597 26.94 222.377 27.04C222.157 27.14 221.917 27.25 221.657 27.37C221.337 27.53 220.997 27.61 220.637 27.61C220.177 27.61 219.747 27.49 219.347 27.25C218.947 27.01 218.647 26.69 218.447 26.29C218.287 25.97 218.207 25.62 218.207 25.24C218.207 24.82 218.307 24.43 218.507 24.07C218.727 23.69 219.027 23.36 219.407 23.08C220.147 22.54 221.077 22.14 222.197 21.88C223.317 21.6 224.437 21.46 225.557 21.46C228.077 21.46 230.067 22.1 231.527 23.38C233.007 24.64 233.747 26.95 233.747 30.31V41.62H229.007L228.767 40.36ZM225.107 33.94C223.927 33.94 223.337 34.55 223.337 35.77C223.337 36.93 223.897 37.51 225.017 37.51H225.437C226.057 37.51 226.607 37.32 227.087 36.94C227.587 36.56 227.837 36.02 227.837 35.32V33.94H225.107Z" fill="black"/>
<rect x="101" y="11" width="15" height="10" fill="white"/>
<circle cx="108.5" cy="16.5" r="3.5" fill="#793AFF"/>
</svg>
