<svg width="212" height="47" viewBox="0 0 212 47" fill="none" xmlns="http://www.w3.org/2000/svg">
<path d="M7.08637 26.9983C8.24507 32.3739 9.21061 37.3329 12.5741 41.0182H6.16906C4.66435 41.0182 3.43323 39.8004 3.43323 38.2943V7.85112C3.43323 6.35299 4.6563 5.12726 6.16906 5.12726H10.8119C9.70147 6.13669 8.71177 7.30635 7.84274 8.62021C4.1896 14.2282 5.67017 20.3809 7.08637 26.9983ZM41.8958 5.12726H34.6377C36.3597 6.84169 37.792 9.09286 38.8783 11.8648L27.8464 14.2121C26.6476 11.8889 24.8049 9.94211 21.2 10.6951C19.2206 11.1198 17.901 12.2413 17.3136 13.4671C16.6055 14.9652 16.2514 16.6556 17.9733 24.707C19.6711 32.7344 20.685 34.1364 21.9564 35.2179C22.9944 36.1072 24.644 36.5798 26.6476 36.1553C30.2283 35.4022 31.1294 32.8947 31.2663 30.291L42.3223 27.9196C42.5798 33.6477 40.8175 37.9498 37.7035 41.0262H41.8958C43.4005 41.0262 44.6316 39.8085 44.6316 38.3023V7.85112C44.6316 6.34499 43.4085 5.12726 41.8958 5.12726Z" fill="#793AFF"/>
<path d="M61.2654 27.824C61.2654 28.9691 61.6087 29.8578 62.2954 30.4902C62.9992 31.1225 63.8489 31.4387 64.8445 31.4387C65.926 31.4387 66.8358 31.2764 67.5739 30.9516C67.7799 30.8491 68.0031 30.7465 68.2434 30.644C68.4837 30.5244 68.7069 30.4475 68.9129 30.4133C69.1189 30.3791 69.2734 30.362 69.3763 30.362C70.1145 30.362 70.6981 30.7038 71.1273 31.3875C71.3333 31.7464 71.4363 32.1053 71.4363 32.4642C71.4363 32.806 71.3504 33.1393 71.1788 33.464C71.0071 33.7716 70.7668 34.0536 70.4578 34.31C69.7883 34.8569 68.9472 35.2671 67.9344 35.5405C66.9216 35.8311 65.8917 35.9764 64.8445 35.9764C63.2653 35.9764 61.8061 35.6944 60.4672 35.1304C59.1282 34.5835 58.0382 33.7204 57.1971 32.5411C56.3731 31.3447 55.9611 29.8493 55.9611 28.0547V20.5945C55.9611 18.8 56.3731 17.3131 57.1971 16.1338C58.0382 14.9375 59.1282 14.0658 60.4672 13.5189C61.8061 12.9549 63.2653 12.6729 64.8445 12.6729C65.9432 12.6729 66.9302 12.7925 67.8057 13.0318C68.6811 13.254 69.3849 13.5531 69.9171 13.9291C70.2947 14.1855 70.5866 14.5016 70.7925 14.8776C71.0157 15.2365 71.1273 15.6125 71.1273 16.0056C71.1273 16.3645 71.0414 16.6893 70.8698 16.9798C70.6638 17.3558 70.3806 17.6378 70.0201 17.8258C69.6768 18.0138 69.3077 18.1078 68.9129 18.1078C68.5867 18.1078 68.2606 18.0395 67.9344 17.9027C67.6254 17.766 67.3508 17.6464 67.1104 17.5438C66.7843 17.4242 66.4495 17.3387 66.1062 17.2875C65.7801 17.2362 65.3595 17.2105 64.8445 17.2105C63.8489 17.2105 62.9992 17.5267 62.2954 18.1591C61.6087 18.7915 61.2654 19.6802 61.2654 20.8253V27.824ZM73.1104 25.4142C73.1104 23.688 73.4709 22.2951 74.1918 21.2355C74.9128 20.1758 75.8312 19.4238 76.947 18.9795C78.0799 18.5351 79.2901 18.3129 80.5776 18.3129C81.8479 18.3129 83.0409 18.5351 84.1567 18.9795C85.2896 19.4238 86.2162 20.1758 86.9372 21.2355C87.6753 22.2951 88.0444 23.688 88.0444 25.4142V28.8751C88.0444 30.6013 87.6753 31.9942 86.9372 33.0538C86.2162 34.1135 85.2896 34.8655 84.1567 35.3098C83.0409 35.7542 81.8479 35.9764 80.5776 35.9764C79.3073 35.9764 78.1057 35.7542 76.9727 35.3098C75.8569 34.8655 74.93 34.1135 74.1918 33.0538C73.4709 31.9942 73.1104 30.6013 73.1104 28.8751V25.4142ZM82.8692 25.1835C82.8692 24.346 82.6375 23.7136 82.174 23.2864C81.7277 22.8591 81.1956 22.6455 80.5776 22.6455C79.9596 22.6455 79.4189 22.8591 78.9554 23.2864C78.5091 23.7136 78.2859 24.346 78.2859 25.1835V29.1058C78.2859 29.9433 78.5091 30.5756 78.9554 31.0029C79.4189 31.4302 79.9596 31.6438 80.5776 31.6438C81.1956 31.6438 81.7277 31.4302 82.174 31.0029C82.6375 30.5756 82.8692 29.9433 82.8692 29.1058V25.1835ZM90.4948 21.056C90.4948 20.2185 90.7437 19.5862 91.2415 19.1589C91.7393 18.7145 92.3745 18.4924 93.147 18.4924C93.9194 18.4924 94.5546 18.7145 95.0524 19.1589C95.5502 19.5862 95.7991 20.2185 95.7991 21.056V35.5662H90.4948V21.056ZM90.4691 15.0315C90.4691 14.2282 90.718 13.6385 91.2158 13.2625C91.7136 12.8695 92.3573 12.6729 93.147 12.6729C93.9366 12.6729 94.5803 12.8695 95.0781 13.2625C95.5759 13.6385 95.8248 14.2282 95.8248 15.0315C95.8248 15.8347 95.5759 16.4329 95.0781 16.826C94.5803 17.202 93.9366 17.39 93.147 17.39C92.3573 17.39 91.7136 17.202 91.2158 16.826C90.718 16.4329 90.4691 15.8347 90.4691 15.0315ZM98.6418 20.8765C98.6418 20.0733 98.8907 19.4495 99.3885 19.0051C99.9035 18.5436 100.521 18.3129 101.242 18.3129C101.757 18.3129 102.229 18.4411 102.659 18.6975C103.105 18.9367 103.431 19.2785 103.637 19.7229C104.135 19.2615 104.71 18.9111 105.362 18.6718C106.032 18.4325 106.71 18.3129 107.396 18.3129C111.31 18.3129 113.267 20.6544 113.267 25.3373V35.5662H107.963V25.0296C107.963 24.2435 107.748 23.6624 107.319 23.2864C106.907 22.8933 106.444 22.6967 105.929 22.6967C105.397 22.6967 104.916 22.8933 104.487 23.2864C104.075 23.6624 103.869 24.2435 103.869 25.0296V35.5662H98.6418V20.8765ZM115.967 15.2878C115.967 14.7409 116.122 14.2709 116.431 13.8778C116.74 13.4847 117.118 13.1942 117.564 13.0062C118.027 12.8011 118.482 12.6985 118.929 12.6985C119.547 12.6985 120.13 12.8353 120.679 13.1087C121.229 13.3651 121.624 13.7325 121.864 14.2111L128.147 27.0293V15.1084C128.147 14.3564 128.37 13.7667 128.816 13.3395C129.28 12.8951 129.838 12.6729 130.49 12.6729C131.142 12.6729 131.691 12.8951 132.138 13.3395C132.601 13.7667 132.833 14.3564 132.833 15.1084V33.4127C132.833 33.9425 132.687 34.3955 132.395 34.7715C132.103 35.1475 131.734 35.4295 131.288 35.6175C130.842 35.8055 130.404 35.8995 129.975 35.8995C129.34 35.8995 128.73 35.7627 128.147 35.4893C127.563 35.2329 127.16 34.8655 126.936 34.3869L120.654 21.4662V35.5662H115.967V15.2878ZM135.27 25.4142C135.27 23.688 135.63 22.2951 136.351 21.2355C137.072 20.1758 137.991 19.4238 139.106 18.9795C140.239 18.5351 141.449 18.3129 142.737 18.3129C144.007 18.3129 145.2 18.5351 146.316 18.9795C147.449 19.4238 148.376 20.1758 149.097 21.2355C149.835 22.2951 150.204 23.688 150.204 25.4142V28.8751C150.204 30.6013 149.835 31.9942 149.097 33.0538C148.376 34.1135 147.449 34.8655 146.316 35.3098C145.2 35.7542 144.007 35.9764 142.737 35.9764C141.467 35.9764 140.265 35.7542 139.132 35.3098C138.016 34.8655 137.089 34.1135 136.351 33.0538C135.63 31.9942 135.27 30.6013 135.27 28.8751V25.4142ZM145.029 25.1835C145.029 24.346 144.797 23.7136 144.333 23.2864C143.887 22.8591 143.355 22.6455 142.737 22.6455C142.119 22.6455 141.578 22.8591 141.115 23.2864C140.668 23.7136 140.445 24.346 140.445 25.1835V29.1058C140.445 29.9433 140.668 30.5756 141.115 31.0029C141.578 31.4302 142.119 31.6438 142.737 31.6438C143.355 31.6438 143.887 31.4302 144.333 31.0029C144.797 30.5756 145.029 29.9433 145.029 29.1058V25.1835ZM152.268 25.4142C152.268 23.688 152.629 22.2951 153.35 21.2355C154.071 20.1758 154.989 19.4238 156.105 18.9795C157.238 18.5351 158.448 18.3129 159.736 18.3129C161.006 18.3129 162.199 18.5351 163.315 18.9795C164.448 19.4238 165.375 20.1758 166.096 21.2355C166.834 22.2951 167.203 23.688 167.203 25.4142V28.8751C167.203 30.6013 166.834 31.9942 166.096 33.0538C165.375 34.1135 164.448 34.8655 163.315 35.3098C162.199 35.7542 161.006 35.9764 159.736 35.9764C158.465 35.9764 157.264 35.7542 156.131 35.3098C155.015 34.8655 154.088 34.1135 153.35 33.0538C152.629 31.9942 152.268 30.6013 152.268 28.8751V25.4142ZM162.027 25.1835C162.027 24.346 161.795 23.7136 161.332 23.2864C160.886 22.8591 160.354 22.6455 159.736 22.6455C159.118 22.6455 158.577 22.8591 158.113 23.2864C157.667 23.7136 157.444 24.346 157.444 25.1835V29.1058C157.444 29.9433 157.667 30.5756 158.113 31.0029C158.577 31.4302 159.118 31.6438 159.736 31.6438C160.354 31.6438 160.886 31.4302 161.332 31.0029C161.795 30.5756 162.027 29.9433 162.027 29.1058V25.1835ZM169.653 20.8765C169.653 20.0733 169.902 19.4495 170.4 19.0051C170.915 18.5436 171.533 18.3129 172.254 18.3129C172.769 18.3129 173.241 18.4411 173.67 18.6975C174.116 18.9367 174.443 19.2785 174.649 19.7229C175.146 19.2615 175.721 18.9111 176.374 18.6718C177.043 18.4325 177.721 18.3129 178.408 18.3129C182.322 18.3129 184.279 20.6544 184.279 25.3373V35.5662H178.974V25.0296C178.974 24.2435 178.76 23.6624 178.331 23.2864C177.919 22.8933 177.455 22.6967 176.94 22.6967C176.408 22.6967 175.927 22.8933 175.498 23.2864C175.086 23.6624 174.88 24.2435 174.88 25.0296V35.5662H169.653V20.8765ZM196.351 34.4895C195.853 34.968 195.261 35.3355 194.574 35.5918C193.904 35.8653 193.192 36.002 192.437 36.002H191.87C191.046 36.002 190.231 35.8311 189.424 35.4893C188.635 35.1645 187.965 34.6005 187.416 33.7973C186.866 32.9769 186.592 31.9087 186.592 30.5927C186.592 28.6785 187.175 27.3113 188.343 26.4909C189.51 25.6535 191.029 25.2347 192.9 25.2347H195.552C195.535 24.2093 195.312 23.5171 194.883 23.1582C194.471 22.7822 193.904 22.5942 193.183 22.5942C192.686 22.5942 192.111 22.6882 191.458 22.8762C191.252 22.9445 191.055 23.0215 190.866 23.1069C190.677 23.1924 190.471 23.2864 190.248 23.3889C189.973 23.5256 189.682 23.594 189.373 23.594C188.978 23.594 188.609 23.4915 188.265 23.2864C187.922 23.0813 187.665 22.8078 187.493 22.466C187.356 22.1926 187.287 21.8935 187.287 21.5687C187.287 21.2098 187.373 20.8765 187.544 20.5689C187.733 20.2442 187.991 19.9622 188.317 19.7229C188.952 19.2615 189.75 18.9196 190.712 18.6975C191.673 18.4582 192.634 18.3385 193.595 18.3385C195.758 18.3385 197.466 18.8855 198.72 19.9793C199.99 21.056 200.625 23.03 200.625 25.9013V35.5662H196.557L196.351 34.4895ZM193.209 29.0033C192.196 29.0033 191.69 29.5245 191.69 30.5671C191.69 31.5584 192.171 32.054 193.132 32.054H193.492C194.025 32.054 194.497 31.8916 194.909 31.5669C195.338 31.2422 195.552 30.7807 195.552 30.1825V29.0033H193.209Z" fill="white"/>
<path d="M99.5627 9.40002H86.6882V17.9455H99.5627V9.40002Z" fill="black"/>
<path d="M93.1255 17.0909C94.7846 17.0909 96.1296 15.7518 96.1296 14.1C96.1296 12.4481 94.7846 11.1091 93.1255 11.1091C91.4664 11.1091 90.1215 12.4481 90.1215 14.1C90.1215 15.7518 91.4664 17.0909 93.1255 17.0909Z" fill="#793AFF"/>
</svg>
